<svg version="1.2" xmlns="http://www.w3.org/2000/svg" viewBox="0 0 760 760" width="760" height="760">
	<title>logo-svg</title>
	<style>
		.s0 { fill: #ffffff } 
		.s1 { fill: #616e7d } 
		.s2 { fill: #82bfab } 
		.s3 { fill: #aad4c8 } 
	</style>
	<g id="g8">
		<g id="g10">
			<path id="path14" class="s0" d="m423 489.7l8.8-10h-17.9z"/>
			<path id="path16" fill-rule="evenodd" class="s0" d="m583.3 47v260.5l-58.4 66.3v-16.8h-375.2v46.2h349.4l-27.5 31.2v-0.8h-321.9v46.1h187.9l65.1 71c5.3 5.8 12.9 9.1 20.8 9.1 8.2-0.1 15.8-3.5 21-9.5l138.8-157.7v209.9h-99c-4.1 0-8.1 1.7-10.9 4.6-2.9 2.9-4.6 6.9-4.6 11v94.9h-376.2v-666zm-58.3 233.5h-375.3v46.2h375.3zm0-76.6h-320.6v46.2h320.6z"/>
			<path id="path18" fill-rule="evenodd" class="s1" d="m583.3 392.6l31.1-35.4v276.4c0 4.1-1.7 8.1-4.6 11l-47.1 47.3-48 47.7c-2.9 2.9-6.8 4.5-10.9 4.5h-426.7c-4.1 0-8.1-1.7-11-4.6-2.9-2.9-4.6-6.9-4.6-11v-697c0-4.1 1.7-8.1 4.6-11 2.9-2.9 6.9-4.6 11-4.6h521.7c4.1 0 8.1 1.7 11 4.6 2.9 2.9 4.6 6.9 4.6 11v240.7l-31.1 35.3v-260.5h-490.7v666h376.2v-94.9c0-4.1 1.7-8.1 4.6-11 2.8-2.9 6.8-4.6 10.9-4.6h99zm-0.6 241h-82.8v80z"/>
			<path id="path20" class="s0" d="m499.9 713.5l82.8-79.9h-82.8z"/>
			<path id="path22" class="s2" d="m204.3 250.1h320.6v-46.1h-320.6z"/>
			<path id="path24" class="s2" d="m149.7 326.7h375.2v-46.2h-375.2z"/>
			<path id="path26" class="s2" d="m149.7 357v46.2h349.4l25.8-29.4v-16.8z"/>
			<path id="path28" class="s2" d="m149.7 433.6v46.1h187.9l-11.2-12.2-13.7-15c-2.3-2.5-2.7-6.2-1-9.1 1.4-2.4 4-3.8 6.7-3.8l1.8 0.2 71.4 17.6c1.5 0.3 2.8 1.1 3.8 2.3l18.5 20h17.9l39.8-45.3v-0.8z"/>
			<path id="path30" class="s3" d="m694.5 254.4l-30.5-26.8c-1.4-1.3-3.3-2-5.1-2h-0.5c-2.1 0.2-4 1.1-5.4 2.7l-38.6 43.9-31.1 35.3-58.4 66.3-25.8 29.4-27.5 31.2-39.8 45.3-8.8 10-9.1-10-18.5-20c-1-1.2-2.3-2-3.8-2.3l-71.4-17.6-1.8-0.2c-2.7 0-5.3 1.4-6.7 3.8-1.7 2.9-1.3 6.6 1 9.1l13.7 15 11.2 12.2 65.1 71c5.3 5.8 12.9 9.1 20.8 9.1 8.2-0.1 15.8-3.5 21-9.5l138.8-157.7 31.1-35.4 80.8-91.8c2.9-3.2 2.5-8.1-0.7-11z"/>
		</g>
	</g>
</svg>